<svg width="104" height="22" viewBox="0 0 104 22" fill="none" xmlns="http://www.w3.org/2000/svg">
<path d="M3.77025 20.7739C2.24395 20.376 1.00462 19.8413 0.0522461 19.1781L0.925602 17.2217C1.42466 16.1026 2.72638 15.572 3.86174 16.0321C4.23188 16.1813 4.61865 16.3181 5.02621 16.4424C6.20732 16.803 7.3718 16.9854 8.51548 16.9854C10.6864 16.9854 11.776 16.4424 11.776 15.3606C11.776 14.7927 11.4641 14.37 10.8486 14.0923C10.2289 13.8187 9.23496 13.5285 7.86254 13.2218C6.35704 12.8985 5.09691 12.5503 4.09048 12.1814C3.07988 11.8125 2.21484 11.2157 1.48704 10.3991C0.763407 9.58254 0.401588 8.47999 0.401588 7.09557C0.401588 5.8811 0.734295 4.78269 1.40387 3.80448C2.06928 2.82627 3.0674 2.05117 4.38991 1.48331C5.71242 0.915455 7.33853 0.629454 9.26407 0.629454C10.5783 0.629454 11.8758 0.778669 13.1526 1.07296C14.4293 1.36725 15.5522 1.79833 16.5254 2.37033L15.6812 4.39721C15.2154 5.51635 13.9469 6.08006 12.7991 5.66971C11.5847 5.23449 10.3953 5.01896 9.2308 5.01896C8.06632 5.01896 7.28862 5.18475 6.77292 5.51635C6.25723 5.84794 5.99938 6.28317 5.99938 6.81372C5.99938 7.34427 6.30298 7.74633 6.91433 8.01161C7.52567 8.27689 8.50716 8.55459 9.85878 8.83645C11.3851 9.15976 12.6452 9.50794 13.6475 9.87684C14.6498 10.2457 15.5148 10.8343 16.2509 11.6426C16.9829 12.4508 17.353 13.5493 17.353 14.9337C17.353 16.1316 17.0203 17.2134 16.3507 18.1833C15.6853 19.1532 14.683 19.9283 13.348 20.5045C12.0131 21.0848 10.3953 21.3749 8.48637 21.3749C6.86442 21.3749 5.29238 21.176 3.77025 20.7781V20.7739Z" fill="#FDFDFD"/>
<path d="M34.2877 1.75292C35.7266 2.50315 36.8412 3.59742 37.6314 5.03157C38.4216 6.46573 38.8166 8.19002 38.8166 10.2045V20.9772H35.4438C34.1795 20.9772 33.1565 19.9575 33.1565 18.6975V16.5587H25.3503V20.9772H22.0607C20.7964 20.9772 19.7733 19.9575 19.7733 18.6975V10.2045C19.7733 8.19002 20.1684 6.46573 20.9586 5.03157C21.7488 3.59742 22.8634 2.50315 24.3023 1.75292C25.7413 1.00268 27.4048 0.625488 29.2929 0.625488C31.181 0.625488 32.8446 1.00268 34.2835 1.75292H34.2877ZM33.1606 12.194V9.71537C33.1606 8.2522 32.8071 7.14964 32.1043 6.41184C31.3973 5.6699 30.4574 5.30099 29.2721 5.30099C28.0868 5.30099 27.1178 5.6699 26.415 6.41184C25.708 7.15379 25.3587 8.25635 25.3587 9.71537V12.194H33.1648H33.1606Z" fill="#FDFDFD"/>
<path d="M59.719 18.6932C59.719 19.9532 58.6959 20.9729 57.4316 20.9729H41.7944V17.7813L52.2289 5.38374H42.0522V3.27397C42.0522 2.0139 43.0753 0.994243 44.3396 0.994243H59.2906V4.18585L48.827 16.6083H59.719V18.6932Z" fill="#FDFDFD"/>
<path d="M76.6911 1.75292C78.1301 2.50315 79.2447 3.59742 80.0348 5.03157C80.825 6.46573 81.2201 8.19002 81.2201 10.2045V20.9772H77.8473C76.583 20.9772 75.5599 19.9575 75.5599 18.6975V16.5587H67.7538V20.9772H64.4642C63.1999 20.9772 62.1768 19.9575 62.1768 18.6975V10.2045C62.1768 8.19002 62.5719 6.46573 63.3621 5.03157C64.1522 3.59742 65.2668 2.50315 66.7058 1.75292C68.1447 1.00268 69.8083 0.625488 71.6964 0.625488C73.5845 0.625488 75.248 1.00268 76.687 1.75292H76.6911ZM75.5599 12.194V9.71537C75.5599 8.2522 75.2064 7.14964 74.5036 6.41184C73.7966 5.6699 72.8567 5.30099 71.6714 5.30099C70.4862 5.30099 69.5171 5.6699 68.8143 6.41184C68.1073 7.15379 67.758 8.25635 67.758 9.71537V12.194H75.5641H75.5599Z" fill="#FDFDFD"/>
<path d="M101.977 2.89242C103.291 4.40118 103.948 6.55241 103.948 9.34611V20.9727H100.575C99.311 20.9727 98.2879 19.953 98.2879 18.693V9.51604C98.2879 8.11091 97.9677 7.05809 97.3314 6.35345C96.6909 5.64881 95.8009 5.30063 94.6573 5.30063C93.5136 5.30063 92.5238 5.67782 91.8002 6.42806C91.0765 7.17829 90.7147 8.30572 90.7147 9.8062V20.9768H87.3419C86.0776 20.9768 85.0545 19.9572 85.0545 18.6971V1.03133H88.2568C89.5211 1.03133 90.5442 2.05099 90.5442 3.31105C91.8958 1.52458 93.8588 0.63342 96.4331 0.63342C98.8161 0.63342 100.663 1.3878 101.981 2.90071L101.977 2.89242Z" fill="#FDFDFD"/>
</svg>
