<svg width="163" height="163" viewBox="0 0 163 163" fill="none" xmlns="http://www.w3.org/2000/svg">
<path d="M69.8069 11.6224L11.6224 69.8069C5.20351 76.2258 5.20351 86.6328 11.6224 93.0516L69.8069 151.236C76.2258 157.655 86.6328 157.655 93.0516 151.236L151.236 93.0517C157.655 86.6328 157.655 76.2258 151.236 69.8069L93.0516 11.6224C86.6328 5.20352 76.2258 5.20351 69.8069 11.6224Z" fill="#CB087B"/>
<path d="M69.4473 117.843C69.4473 111.217 81.4303 90.9793 81.4303 90.9793C81.4303 90.9793 93.4133 111.217 93.4133 117.843C93.4133 124.469 88.0451 129.826 81.4303 129.826C74.8155 129.826 69.4473 124.458 69.4473 117.843Z" fill="#FDFDFD"/>
<path d="M81.3628 123.594C83.5523 123.594 85.3272 121.819 85.3272 119.629C85.3272 117.44 83.5523 115.665 81.3628 115.665C79.1733 115.665 77.3984 117.44 77.3984 119.629C77.3984 121.819 79.1733 123.594 81.3628 123.594Z" fill="#CB087B"/>
<path d="M44.8522 69.2707C51.4782 69.2707 71.7157 81.2537 71.7157 81.2537C71.7157 81.2537 51.4782 93.2367 44.8522 93.2367C38.2261 93.2367 32.8691 87.8685 32.8691 81.2537C32.8691 74.6389 38.2374 69.2707 44.8522 69.2707Z" fill="#FDFDFD"/>
<path d="M43.0787 85.1511C45.2681 85.1511 47.043 83.3761 47.043 81.1867C47.043 78.9972 45.2681 77.2223 43.0787 77.2223C40.8892 77.2223 39.1143 78.9972 39.1143 81.1867C39.1143 83.3761 40.8892 85.1511 43.0787 85.1511Z" fill="#CB087B"/>
<path d="M93.426 44.6873C93.426 51.3133 81.443 71.5509 81.443 71.5509C81.443 71.5509 69.46 51.3133 69.46 44.6873C69.46 38.0613 74.8282 32.7043 81.443 32.7043C88.0578 32.7043 93.426 38.0725 93.426 44.6873Z" fill="#FDFDFD"/>
<path d="M81.5103 46.8657C83.6998 46.8657 85.4747 45.0907 85.4747 42.9013C85.4747 40.7118 83.6998 38.9369 81.5103 38.9369C79.3208 38.9369 77.5459 40.7118 77.5459 42.9013C77.5459 45.0907 79.3208 46.8657 81.5103 46.8657Z" fill="#CB087B"/>
<path d="M118.009 93.2489C111.383 93.2489 91.1455 81.2659 91.1455 81.2659C91.1455 81.2659 111.383 69.2829 118.009 69.2829C124.635 69.2829 129.992 74.6511 129.992 81.2659C129.992 87.8807 124.624 93.2489 118.009 93.2489Z" fill="#FDFDFD"/>
<path d="M119.794 85.3086C121.984 85.3086 123.759 83.5337 123.759 81.3442C123.759 79.1548 121.984 77.3799 119.794 77.3799C117.605 77.3799 115.83 79.1548 115.83 81.3442C115.83 83.5337 117.605 85.3086 119.794 85.3086Z" fill="#CB087B"/>
<path d="M55.5894 99.6272C57.6558 97.5607 67.7184 94.9889 67.7184 94.9889C67.7184 94.9889 65.1466 105.052 63.0802 107.118C61.0137 109.184 57.667 109.184 55.6006 107.118C53.5342 105.052 53.5342 101.705 55.6006 99.6384L55.5894 99.6272Z" fill="#FDFDFD"/>
<path d="M63.0689 55.4229C65.1354 57.4893 67.7072 67.5519 67.7072 67.5519C67.7072 67.5519 57.6446 64.9801 55.5781 62.9137C53.5117 60.8473 53.5117 57.5006 55.5781 55.4341C57.6446 53.3677 60.9913 53.3677 63.0577 55.4341L63.0689 55.4229Z" fill="#FDFDFD"/>
<path d="M107.283 62.9033C105.217 64.9697 95.1543 67.5415 95.1543 67.5415C95.1543 67.5415 97.7261 57.4789 99.7925 55.4125C101.859 53.346 105.206 53.346 107.272 55.4125C109.339 57.4789 109.339 60.8256 107.272 62.892L107.283 62.9033Z" fill="#FDFDFD"/>
<path d="M99.7925 107.107C97.7261 105.041 95.1543 94.9785 95.1543 94.9785C95.1543 94.9785 105.217 97.5503 107.283 99.6167C109.35 101.683 109.35 105.03 107.283 107.096C105.217 109.163 101.87 109.163 99.8038 107.096L99.7925 107.107Z" fill="#FDFDFD"/>
<path d="M81.4307 87.5093C84.7925 87.5093 87.5177 84.7841 87.5177 81.4224C87.5177 78.0606 84.7925 75.3354 81.4307 75.3354C78.069 75.3354 75.3438 78.0606 75.3438 81.4224C75.3438 84.7841 78.069 87.5093 81.4307 87.5093Z" fill="#FCD73D"/>
</svg>
