<svg width="50" height="50" viewBox="0 0 50 50" fill="none" xmlns="http://www.w3.org/2000/svg">
<rect width="50" height="50" rx="25" fill="#98065C"/>
<g clip-path="url(#clip0_627_7816)">
<path d="M15.9245 29.1471C15.8795 28.9988 15.501 28.8213 15.3181 28.8243C14.6962 28.8315 13.427 29.3376 12.7277 29.4802C12.5152 29.5238 12.3548 29.6067 12.4083 29.294L19.231 22.2419C22.4869 26.1003 28.3711 23.8577 28.4485 18.7485L37.7335 23.2585C37.7743 23.6322 37.7335 23.4897 37.5295 23.5522C37.106 23.6817 36.0353 23.7035 35.8326 24.1282C35.4063 25.0226 36.5629 29.2475 34.5959 28.6119C34.4326 28.5596 34.0767 28.0927 34.0767 27.9836V24.7841C34.0767 24.6823 33.8403 24.5877 33.7235 24.5645C33.2761 24.4772 30.825 25.0517 30.303 25.2451C30.1524 25.3004 29.7148 25.52 29.7148 25.6552V28.2731C29.7148 28.5857 28.6089 28.9813 28.4527 28.1233C28.3331 27.4688 28.8073 25.6756 27.6789 25.8661C26.9444 25.9912 27.3482 26.9002 27.3159 27.3786C27.1963 29.1384 25.7878 30.4269 24.0487 30.0561C23.5788 29.9557 23.1609 29.3813 22.8837 29.3551C22.5235 29.3202 22.1366 29.8248 21.7327 29.9121C21.0728 30.0532 20.0978 29.9775 19.4843 29.6838C19.1269 29.5122 19.0706 29.1384 18.5374 29.2126C17.4666 29.3638 18.7625 32.3307 16.8728 32.0965C16.6083 32.0631 15.9259 31.5599 15.9259 31.3257C15.9259 30.8487 16.0216 29.4627 15.9259 29.1442L15.9245 29.1471Z" fill="#FDFDFD"/>
<path d="M39 24.7114V30.8197L11 37.2188V31.1833C12.1495 30.6699 13.5481 30.4881 14.799 30.2379C14.2432 33.6847 18.9174 34.4585 19.1622 30.9637C20.0937 31.1178 20.928 31.2269 21.8722 31.0756C22.1705 31.0276 22.5644 30.728 22.7502 30.728C22.9176 30.728 23.486 31.1047 23.7984 31.1876C25.0718 31.5308 26.2016 31.1963 27.1865 30.315C27.4145 30.1114 27.5833 29.5937 27.8422 29.5253C28.0786 29.4628 28.4543 29.7653 28.7962 29.806C30.7857 30.0416 30.9926 28.0433 30.8547 26.4697L32.9512 26.0189V28.2731C32.9512 28.3269 33.3831 29.1239 33.4535 29.2083C34.4018 30.3499 36.4941 29.8642 36.8304 28.356C36.9851 27.6608 36.7501 25.4386 36.9528 25.1375C37.0935 24.9296 38.6511 24.7129 39.0014 24.71L39 24.7114Z" fill="#FDFDFD"/>
<path d="M39 31.9829V34.6007L11 40.9999V38.382L39 31.9829Z" fill="#FDFDFD"/>
<path d="M24.2248 14.8203C27.8352 15.6784 28.4023 21.0827 24.9818 22.6563C20.2358 24.8393 16.617 17.5632 21.7822 14.9861C22.0397 14.8581 22.6925 14.7607 22.7882 14.6429C22.8923 14.5149 23.0077 13.6379 23.1329 13.3267C24.0081 11.1525 25.9808 8.74842 28.5008 9.02183C28.937 9.06837 29.4758 9.16727 29.549 9.69229C29.7094 10.8456 28.1138 10.3467 27.4244 10.4907C25.9583 10.799 24.4161 13.3412 24.2262 14.8189L24.2248 14.8203Z" fill="#FDFDFD"/>
</g>
<defs>
<clipPath id="clip0_627_7816">
<rect width="28" height="32" fill="white" transform="translate(11 9)"/>
</clipPath>
</defs>
</svg>
