<svg width="50" height="50" viewBox="0 0 50 50" fill="none" xmlns="http://www.w3.org/2000/svg">
<rect width="50" height="50" rx="25" fill="#98065C"/>
<path d="M17.1201 9L15.0166 20.7333C14.7095 22.4507 18.7651 23.2528 18.6978 25L18.1719 38.8667C18.0919 41 20.2754 41 20.2754 41C20.2754 41 22.4588 41 22.3789 38.8667L21.853 25C21.7878 23.2549 25.4984 22.4827 25.5342 20.7333L23.4307 9H22.3789L22.9048 17.5333L21.3272 18.6L20.8013 9H19.7495L19.2236 18.6L17.646 17.5333L18.1719 9H17.1201ZM35 9C33.4518 9 30.8687 10.3973 29.8359 12.4923C28.9734 14.0624 28.6895 17.5717 28.6895 19.6667V25C28.6895 26.7451 30.9823 27.1333 31.8447 27.1333L30.793 38.8667C30.6037 40.9915 32.8965 41 32.8965 41C32.8965 41 35 41 35 38.8667V9Z" fill="#FDFDFD"/>
</svg>
