<svg width="50" height="50" viewBox="0 0 50 50" fill="none" xmlns="http://www.w3.org/2000/svg">
<rect width="50" height="50" rx="25" fill="#98065C"/>
<path d="M26.0761 12.2098L24.6315 17.1203C25.6291 16.3153 26.9909 16.0952 28.2305 16.4205C28.5293 16.4988 29.227 16.8959 29.3731 16.9002C29.5574 16.9056 29.9564 16.6212 30.2127 16.5514C31.5297 16.1951 32.6811 16.5847 33.5097 17.6634C33.6427 17.8372 33.7659 18.2805 33.8967 18.3557C34.0777 18.4608 34.4233 18.3836 34.6686 18.4544C36.0609 18.8569 36.7871 19.81 36.6246 21.2526C36.581 21.6411 36.2278 22.1703 36.2278 22.3259C36.2278 22.4665 37.0967 24.4951 37.2232 24.9555C37.4238 25.6886 37.6288 26.6203 37.7127 27.3716C37.9831 29.7887 37.0978 30.9372 38.1652 33.3661C38.8652 34.9579 41.4382 37.4684 38.9142 38.7488C37.7007 39.3649 34.3645 40.5134 32.9994 40.8687C32.2537 41.0629 31.5962 41.1005 30.9606 40.566C30.1821 39.9123 30.1625 37.8279 29.8997 36.7804C29.2478 34.1894 28.5554 34.3085 27.0323 32.5193C26.2298 31.5758 25.4448 30.232 24.9389 29.1061C24.6522 28.4696 24.3524 27.2256 24.0645 26.7469C23.9577 26.5688 23.7974 26.4904 23.599 26.455L18.5095 40.127C17.9873 40.8322 17.4203 41.0619 16.5339 40.9213C15.846 40.8129 11.4587 39.2415 10.8546 38.8927C10.1536 38.487 9.85049 37.6358 10.0707 36.8641C12.0921 32.1586 13.4015 26.7641 15.4982 22.137C15.9495 21.1409 16.7236 20.0247 17.6864 19.4612C17.9753 19.2927 18.9947 18.9728 19.047 18.9224C19.0874 18.8827 19.2651 18.1657 19.3447 17.9811C20.3532 15.6541 21.3366 13.3143 22.3986 11.0109C21.8643 10.1544 22.3942 8.97051 23.4692 9.00056C23.8498 9.01129 26.1372 9.86137 26.4762 10.0975C27.403 10.7436 27.0737 11.9082 26.0761 12.2098ZM32.8402 19.4515C32.6865 19.2626 32.6996 18.9063 32.5938 18.6723C32.2002 17.7997 31.2244 17.4637 30.3348 17.8512C30.0655 17.9682 29.6871 18.3889 29.4789 18.4115C29.1496 18.4469 28.7549 18.009 28.4137 17.8512C26.0674 16.7671 23.5685 18.8848 24.36 21.3052C24.4636 21.6229 24.879 22.0994 24.8321 22.4085C24.7481 22.9634 23.4976 23.177 23.5314 24.3652C23.5652 25.5534 24.9956 25.5963 25.9017 25.3999C26.7172 25.2239 27.6363 24.3341 28.176 25.3827C28.5718 26.1512 29.0733 28.4589 29.5323 28.9548C29.9739 29.4324 31.0914 29.1082 31.0598 28.3451C31.0238 27.4725 29.9281 25.7509 29.7787 24.7656C29.7449 24.5402 29.7286 24.2568 29.8561 24.0593C30.0404 23.7738 33.7179 22.7187 34.4103 22.2915C34.9903 21.9331 35.4798 21.3062 35.3348 20.5978C35.0535 19.2251 33.2993 20.014 32.8402 19.4505V19.4515ZM35.3141 23.3466L31.1765 24.8997L31.557 25.9237C32.5426 25.6414 33.6056 25.0521 34.5836 24.816C34.6959 24.7892 34.7166 24.6947 34.8235 24.8471C35.1593 25.328 35.7219 27.2063 35.832 27.8288C36.1471 29.5966 35.5594 31.2259 36.2049 32.8284C36.5963 33.7997 38.3909 35.7274 37.0913 36.4144C36.5374 36.7074 33.1913 37.931 32.6178 38.0286C32.282 38.0855 31.8252 37.9385 31.6235 37.6605C31.3498 37.2859 31.1765 35.3636 30.9497 34.6745C30.4296 33.0913 29.48 32.7833 28.5783 31.535C28.0583 30.8159 26.8677 28.5973 26.8328 27.7741C26.8186 27.4499 27.4095 27.4929 27.4651 27.4177C27.524 27.3383 27.1817 26.3841 27.1359 26.3509C27.0683 26.3015 25.761 26.8145 25.5081 26.7823C26.0183 28.6349 27.0606 30.7268 28.393 32.1468C29.8398 33.6892 30.3795 33.7182 31.0347 35.9861C31.2135 36.6033 31.6246 39.4057 31.8306 39.6021C32.2188 39.9724 32.608 39.5753 33.0278 39.5495C33.0125 39.3639 32.7334 39.4658 32.5306 39.3435C32.04 39.0483 32.1926 38.4526 32.7007 38.209C34.1573 37.5092 36.0675 37.1431 37.5721 36.4659C38.3516 36.5678 38.4868 37.2097 37.9351 37.726C38.5043 37.6401 38.8423 37.36 38.6515 36.7568C38.4781 36.2094 37.5448 35.0437 37.2221 34.404C35.6815 31.345 36.7456 30.4123 36.4087 27.4768C36.2441 26.0482 35.7589 24.7001 35.3174 23.3445L35.3141 23.3466ZM18.0102 26.148C15.5167 26.4797 14.1637 31.5372 16.4315 32.4452C18.2348 33.1676 19.7557 30.7955 20.0076 29.3068C20.2409 27.9276 19.8528 25.9022 18.0102 26.1469V26.148Z" fill="#FDFDFD"/>
</svg>
