<svg width="50" height="50" viewBox="0 0 50 50" fill="none" xmlns="http://www.w3.org/2000/svg">
<rect width="50" height="50" rx="25" fill="#98065C"/>
<path d="M20.9375 12.1875C21.7937 12.1875 22.5794 12.5075 23.1512 13.0988C23.7231 13.6906 24.0625 14.5356 24.0625 15.555C24.0625 16.5694 23.7275 17.5875 23.1812 18.3581C22.6375 19.125 21.85 19.6875 20.9375 19.6875C20.025 19.6875 19.2375 19.125 18.6937 18.3581C18.1475 17.5875 17.8125 16.5694 17.8125 15.5556C17.8125 14.5356 18.1519 13.6906 18.7244 13.0988C19.2956 12.5075 20.0813 12.1875 20.9375 12.1875ZM14.0625 17.8125C14.9188 17.8125 15.7044 18.1325 16.2762 18.7238C16.8481 19.3156 17.1875 20.1606 17.1875 21.18C17.1875 22.1944 16.8525 23.2125 16.3063 23.9831C15.7625 24.75 14.975 25.3125 14.0625 25.3125C13.15 25.3125 12.3625 24.75 11.8188 23.9831C11.2725 23.2125 10.9375 22.1938 10.9375 21.1806C10.9375 20.1606 11.2769 19.3156 11.8494 18.7238C12.4206 18.1325 13.2062 17.8125 14.0625 17.8125ZM25 22.1875C20.5475 22.1875 16.8588 25.9781 15.6975 30.7312C15.1825 32.84 15.9681 35.1019 17.9056 36.1737C19.445 37.0262 21.7488 37.8125 24.9994 37.8125C28.2506 37.8125 30.5544 37.0262 32.0944 36.1737C34.0313 35.1019 34.8169 32.84 34.3019 30.7319C33.1412 25.9781 29.4519 22.1875 25 22.1875ZM35.9375 17.8125C35.0812 17.8125 34.2956 18.1325 33.7244 18.7238C33.1519 19.3156 32.8125 20.1606 32.8125 21.18C32.8125 22.1944 33.1475 23.2125 33.6938 23.9831C34.2375 24.75 35.025 25.3125 35.9375 25.3125C36.85 25.3125 37.6375 24.75 38.1812 23.9831C38.7275 23.2125 39.0625 22.1944 39.0625 21.1806C39.0625 20.1606 38.7231 19.3156 38.1512 18.7238C37.5794 18.1325 36.7938 17.8125 35.9375 17.8125ZM29.0625 12.1875C28.2062 12.1875 27.4206 12.5075 26.8494 13.0988C26.2769 13.6906 25.9375 14.5356 25.9375 15.555C25.9375 16.5694 26.2725 17.5875 26.8188 18.3581C27.3625 19.125 28.15 19.6875 29.0625 19.6875C29.975 19.6875 30.7625 19.125 31.3062 18.3581C31.8525 17.5875 32.1875 16.5694 32.1875 15.5556C32.1875 14.5356 31.8481 13.6906 31.2762 13.0988C30.7044 12.5075 29.9188 12.1875 29.0625 12.1875Z" fill="#FDFDFD"/>
</svg>
