<svg width="50" height="50" viewBox="0 0 50 50" fill="none" xmlns="http://www.w3.org/2000/svg">
<rect width="50" height="50" rx="25" fill="#98065C"/>
<path d="M24.7508 34.2578C23.5422 34.2578 22.4744 34.0437 21.5474 33.6154C20.6263 33.1812 19.9076 32.5857 19.3913 31.8289C18.875 31.0662 18.6198 30.1979 18.6257 29.224C18.6198 28.4613 18.7694 27.7572 19.0745 27.1119C19.3796 26.4606 19.7961 25.9179 20.3241 25.4838C20.858 25.0438 21.4535 24.7651 22.1106 24.6477V24.5421C21.2482 24.3192 20.5618 23.8352 20.0513 23.0901C19.5409 22.3391 19.2886 21.4855 19.2945 20.5291C19.2886 19.6139 19.5204 18.7955 19.9897 18.0738C20.4591 17.3522 21.1044 16.7831 21.9258 16.3665C22.7531 15.95 23.6947 15.7417 24.7508 15.7417C25.7951 15.7417 26.7279 15.95 27.5493 16.3665C28.3707 16.7831 29.016 17.3522 29.4854 18.0738C29.9606 18.7955 30.2012 19.6139 30.207 20.5291C30.2012 21.4855 29.9401 22.3391 29.4238 23.0901C28.9134 23.8352 28.2357 24.3192 27.3909 24.5421V24.6477C28.0421 24.7651 28.6288 25.0438 29.151 25.4838C29.6731 25.9179 30.0897 26.4606 30.4006 27.1119C30.7116 27.7572 30.87 28.4613 30.8759 29.224C30.87 30.1979 30.606 31.0662 30.0838 31.8289C29.5675 32.5857 28.8488 33.1812 27.9277 33.6154C27.0125 34.0437 25.9535 34.2578 24.7508 34.2578ZM24.7508 32.3217C25.5663 32.3217 26.2703 32.1897 26.8629 31.9257C27.4554 31.6617 27.9131 31.2891 28.2357 30.8081C28.5584 30.327 28.7227 29.7637 28.7286 29.1184C28.7227 28.4378 28.5467 27.8364 28.2005 27.3143C27.8544 26.7921 27.3821 26.3814 26.7837 26.0822C26.1911 25.783 25.5135 25.6334 24.7508 25.6334C23.9822 25.6334 23.2958 25.783 22.6915 26.0822C22.093 26.3814 21.6207 26.7921 21.2746 27.3143C20.9343 27.8364 20.7671 28.4378 20.773 29.1184C20.7671 29.7637 20.9226 30.327 21.2394 30.8081C21.5621 31.2891 22.0226 31.6617 22.6211 31.9257C23.2195 32.1897 23.9294 32.3217 24.7508 32.3217ZM24.7508 23.7677C25.3961 23.7677 25.9682 23.6386 26.4668 23.3805C26.9714 23.1223 27.3674 22.7615 27.6549 22.298C27.9424 21.8345 28.0891 21.2918 28.0949 20.6699C28.0891 20.0598 27.9453 19.5288 27.6637 19.0771C27.3821 18.6194 26.9919 18.2674 26.4932 18.021C25.9946 17.7687 25.4137 17.6426 24.7508 17.6426C24.0761 17.6426 23.4864 17.7687 22.9819 18.021C22.4773 18.2674 22.0872 18.6194 21.8114 19.0771C21.5357 19.5288 21.4007 20.0598 21.4066 20.6699C21.4007 21.2918 21.5386 21.8345 21.8202 22.298C22.1077 22.7615 22.5037 23.1223 23.0083 23.3805C23.5128 23.6386 24.0937 23.7677 24.7508 23.7677Z" fill="#FDFDFD"/>
<path d="M16.5545 15.9883V34.0116H14.372V18.2764H14.2664L9.86621 21.1981V18.9804L14.372 15.9883H16.5545Z" fill="#FDFDFD"/>
<path d="M39.4723 25.6614H36.1658V28.9679C36.1658 29.1433 36.0961 29.3115 35.9721 29.4355C35.8481 29.5595 35.6799 29.6292 35.5045 29.6292C35.3291 29.6292 35.1609 29.5595 35.0369 29.4355C34.9129 29.3115 34.8432 29.1433 34.8432 28.9679V25.6614H31.5368C31.3614 25.6614 31.1932 25.5917 31.0692 25.4677C30.9452 25.3437 30.8755 25.1755 30.8755 25.0001C30.8755 24.8247 30.9452 24.6565 31.0692 24.5325C31.1932 24.4085 31.3614 24.3388 31.5368 24.3388H34.8432V21.0324C34.8432 20.857 34.9129 20.6888 35.0369 20.5648C35.1609 20.4408 35.3291 20.3711 35.5045 20.3711C35.6799 20.3711 35.8481 20.4408 35.9721 20.5648C36.0961 20.6888 36.1658 20.857 36.1658 21.0324V24.3388H39.4723C39.6476 24.3388 39.8158 24.4085 39.9399 24.5325C40.0639 24.6565 40.1336 24.8247 40.1336 25.0001C40.1336 25.1755 40.0639 25.3437 39.9399 25.4677C39.8158 25.5917 39.6476 25.6614 39.4723 25.6614Z" fill="#FDFDFD"/>
</svg>
