<svg width="50" height="50" viewBox="0 0 50 50" fill="none" xmlns="http://www.w3.org/2000/svg">
<rect width="50" height="50" rx="25" fill="#98065C"/>
<path d="M28.5447 17.6859L25.7085 17.1872L25.9536 15.7918L28.8832 16.3068C29.1021 15.9343 29.4145 15.6255 29.7895 15.4109C30.1644 15.1963 30.589 15.0835 31.021 15.0835H33.7729C34.0137 15.0835 34.2085 15.2783 34.2085 15.5191V19.6062C34.2085 19.847 34.013 20.0418 33.7729 20.0418H31.021C30.3848 20.0419 29.7729 19.7974 29.3119 19.3588C28.851 18.9203 28.5763 18.3213 28.5447 17.6859Z" fill="#FDFDFD"/>
<path fill-rule="evenodd" clip-rule="evenodd" d="M29.8204 21.1489L29.1616 26.4168H24.2918V25.5101C24.2918 25.2282 24.0241 25.0001 23.694 25.0001H17.9777C14.0323 25.0001 10.8335 27.7272 10.8335 31.0918C10.8335 31.2476 10.9822 31.3751 11.1664 31.3751H14.3907C14.4777 32.3442 14.9241 33.2457 15.6422 33.9022C16.3603 34.5588 17.298 34.9229 18.271 34.9229C19.244 34.9229 20.1817 34.5588 20.8998 33.9022C21.6179 33.2457 22.0643 32.3442 22.1512 31.3751H22.7958C22.8227 31.3751 22.8492 31.3747 22.8752 31.3737V31.3751H30.2177C30.3608 31.8568 30.7724 32.1649 31.2222 32.2606C31.5225 33.1609 32.1413 33.9207 32.9622 34.3971C33.7831 34.8735 34.7498 35.0339 35.6806 34.848C36.6113 34.6622 37.4423 34.1429 38.0173 33.3878C38.5923 32.6326 38.8719 31.6935 38.8035 30.7468C39.1187 30.4182 39.2773 29.9358 39.0832 29.4138C38.8605 28.8154 38.5157 28.2699 38.0709 27.8119C37.626 27.3539 37.0907 26.9935 36.499 26.7535C35.9074 26.5135 35.2723 26.3991 34.6341 26.4178C33.9959 26.4364 33.3685 26.5875 32.7918 26.8616V21.4585H31.021C30.601 21.4586 30.1879 21.3521 29.8204 21.1489ZM20.0064 31.3751H16.5356C16.6169 31.7754 16.834 32.1353 17.1503 32.3939C17.4666 32.6524 17.8625 32.7936 18.271 32.7936C18.6795 32.7936 19.0754 32.6524 19.3917 32.3939C19.7079 32.1353 19.9251 31.7754 20.0064 31.3751ZM33.4251 31.9758C33.6137 32.2701 33.8851 32.5021 34.2052 32.6425C34.5254 32.7829 34.8799 32.8254 35.2241 32.7647C35.5684 32.7041 35.887 32.5429 36.1399 32.3016C36.3927 32.0602 36.5685 31.7495 36.6452 31.4084L33.4251 31.9758Z" fill="#FDFDFD"/>
<path d="M14.4954 22.1667C14.5092 22.128 14.5241 22.0897 14.54 22.0519L14.4954 22.1667ZM14.4954 22.1667C14.4175 22.3884 14.375 22.6271 14.375 22.875V23.5833H25V22.875C24.9991 22.6356 24.9617 22.4084 24.8881 22.1936L24.8796 22.1667C24.733 21.7522 24.4615 21.3933 24.1025 21.1396C23.7435 20.8859 23.3146 20.7498 22.875 20.75H16.5C16.0822 20.7499 15.6737 20.8729 15.3255 21.1037C14.9773 21.3345 14.7048 21.6629 14.5422 22.0477" fill="#FDFDFD"/>
</svg>
